# xmcd CD database file
#
# Track frame offsets:
#	180
#	18612
#	35861
#	54285
#	72011
#	87242
#	102570
#	117447
#	132634
#	148483
#	164957
#	180118
#	194878
#	209125
#	225917
#
# Disc length: 3182 seconds
#
# Revision: 0
# Processed by: cddbd v1.5.2PL0 Copyright (c) Steve Scherf et al.
# Submitted via: CdAid (MTCDDB.DLL V2003.12.21)
#
DISCID=ee0c6c0f
DTITLE=Cleyton e Cleber - Cleyton e Cleber
DYEAR=0
DGENRE=Folk
TTITLE0=Errar é humano
TTITLE1=Doce feitiço
TTITLE2=Conversando com a solidão
TTITLE3=Quando a noite chega
TTITLE4=Nosso amor tá selado
TTITLE5=Copo com batom
TTITLE6=Me ensina seu jogo
TTITLE7=Esta cama eu não vendo
TTITLE8=Perde o juízo
TTITLE9=Tô te esperando
TTITLE10=Árvore
TTITLE11=Amor que não tem jeito
TTITLE12=Pequenininha
TTITLE13=Não aguento solidão
TTITLE14=Esta é a vida
EXTD=YEAR: 0  ID3G:  80
EXTT0=
EXTT1=
EXTT2=
EXTT3=
EXTT4=
EXTT5=
EXTT6=
EXTT7=
EXTT8=
EXTT9=
EXTT10=
EXTT11=
EXTT12=
EXTT13=
EXTT14=
PLAYORDER=
